<svg width="18" height="14" viewBox="0 0 18 14" fill="none" xmlns="http://www.w3.org/2000/svg">
<path d="M15.2477 1.17248C14.0651 0.616848 12.8166 0.222666 11.5342 0C11.3587 0.321942 11.1999 0.653178 11.0585 0.99232C9.69244 0.781074 8.30325 0.781074 6.93721 0.99232C6.79571 0.653213 6.63693 0.321981 6.46151 0C5.17825 0.224546 3.92895 0.619664 2.74514 1.17538C0.394983 4.74367 -0.242108 8.22333 0.0764374 11.6536C1.45275 12.6971 2.99324 13.4908 4.63094 14C4.9997 13.491 5.326 12.9511 5.60639 12.3858C5.07383 12.1817 4.55982 11.9299 4.07029 11.6333C4.19913 11.5374 4.32513 11.4386 4.44689 11.3427C5.87128 12.0301 7.42593 12.3865 8.99997 12.3865C10.574 12.3865 12.1287 12.0301 13.5531 11.3427C13.6762 11.4458 13.8022 11.5446 13.9296 11.6333C13.4392 11.9304 12.9242 12.1827 12.3907 12.3873C12.6708 12.9523 12.9971 13.4918 13.3662 14C15.0053 13.4928 16.5469 12.6996 17.9235 11.655C18.2973 7.67704 17.285 4.22935 15.2477 1.17248ZM6.00988 9.544C5.1222 9.544 4.38884 8.71731 4.38884 7.70029C4.38884 6.68327 5.09672 5.84931 6.00705 5.84931C6.91739 5.84931 7.64509 6.68327 7.62951 7.70029C7.61394 8.71731 6.91456 9.544 6.00988 9.544ZM11.9901 9.544C11.101 9.544 10.3704 8.71731 10.3704 7.70029C10.3704 6.68327 11.0783 5.84931 11.9901 5.84931C12.9018 5.84931 13.6238 6.68327 13.6083 7.70029C13.5927 8.71731 12.8947 9.544 11.9901 9.544Z" fill="white"/>
</svg>
