<svg width="19" height="14" viewBox="0 0 19 14" fill="none" xmlns="http://www.w3.org/2000/svg">
<path d="M17.0809 3.48526C17.0921 3.63715 17.0921 3.78904 17.0921 3.94233C17.0921 8.61314 13.2799 14 6.30912 14V13.9972C4.24993 14 2.23351 13.4498 0.5 12.4125C0.799424 12.4461 1.10035 12.4629 1.40202 12.4636C3.10851 12.465 4.76623 11.9309 6.10876 10.9475C4.48706 10.9188 3.06499 9.93256 2.5682 8.49275C3.13628 8.59494 3.72162 8.57394 4.27919 8.43185C2.51117 8.09867 1.23918 6.64976 1.23918 4.96707C1.23918 4.95167 1.23918 4.93697 1.23918 4.92227C1.76598 5.19596 2.35583 5.34785 2.95918 5.36465C1.29396 4.32661 0.780663 2.26034 1.78625 0.644843C3.71036 2.8532 6.54926 4.19572 9.59678 4.33781C9.29135 3.11009 9.7086 1.82357 10.6932 0.960523C12.2196 -0.377792 14.6202 -0.309197 16.055 1.11381C16.9038 0.957723 17.7172 0.667242 18.4617 0.255668C18.1788 1.07392 17.5867 1.76897 16.7957 2.21064C17.5469 2.12805 18.2808 1.94046 18.972 1.65418C18.4632 2.36533 17.8223 2.9848 17.0809 3.48526Z" fill="white"/>
</svg>
