<svg version="1.2" xmlns="http://www.w3.org/2000/svg" viewBox="0 0 24 24" fill="none" width="20" height="20">
	<title>linkedin-svg</title>
	<style>
		.s0 { opacity: 1;fill: #ffffff }
	</style>
	<path id="Layer copy" fill-rule="evenodd" class="s0" d="m24 5v14c0 2.8-2.2 5-5 5h-14c-2.8 0-5-2.2-5-5v-14c0-2.8 2.2-5 5-5h14c2.8 0 5 2.2 5 5zm-16 3h-3v11h3zm0.3-3c0-1-0.8-1.8-1.8-1.8-1 0-1.8 0.8-1.8 1.8 0.1 0.9 0.8 1.7 1.8 1.7 1 0 1.8-0.8 1.8-1.7zm11.7 7.2c0-5.2-5.6-5-7-2.4v-1.8h-3v11h3v-5.6c0-3.1 4-3.4 4 0v5.6h3z" fill="white"/>
</svg>
