<svg width="18" height="18" viewBox="0 0 18 18" fill="none" xmlns="http://www.w3.org/2000/svg">
<path d="M2.85286 0.5V5.45833H4.26953V1.91667H12.7695V5.45833H14.1862V0.5H2.85286ZM5.6862 3.33333V4.75H11.3529V3.33333H5.6862ZM0.727865 6.16667V7.58333H0.0195312V9H0.727865V15.375C0.727865 16.5399 1.68799 17.5 2.85286 17.5H14.1862C15.3511 17.5 16.3112 16.5399 16.3112 15.375V9H17.0195V7.58333H16.3112V6.16667H9.22786V7.58333H10.6445V8.29167H6.39453V7.58333H7.8112V6.16667H0.727865ZM2.14453 7.58333H4.97786V9.70833H12.0612V7.58333H14.8945V15.375C14.8945 15.7734 14.5846 16.0833 14.1862 16.0833H2.85286C2.45443 16.0833 2.14453 15.7734 2.14453 15.375V7.58333ZM4.26953 11.125C3.87939 11.125 3.5612 11.4432 3.5612 11.8333C3.5612 12.2235 3.87939 12.5417 4.26953 12.5417C4.65967 12.5417 4.97786 12.2235 4.97786 11.8333C4.97786 11.4432 4.65967 11.125 4.26953 11.125ZM7.10286 11.125C6.71273 11.125 6.39453 11.4432 6.39453 11.8333C6.39453 12.2235 6.71273 12.5417 7.10286 12.5417C7.493 12.5417 7.8112 12.2235 7.8112 11.8333C7.8112 11.4432 7.493 11.125 7.10286 11.125ZM9.9362 11.125C9.54606 11.125 9.22786 11.4432 9.22786 11.8333C9.22786 12.2235 9.54606 12.5417 9.9362 12.5417C10.3263 12.5417 10.6445 12.2235 10.6445 11.8333C10.6445 11.4432 10.3263 11.125 9.9362 11.125ZM12.7695 11.125C12.3794 11.125 12.0612 11.4432 12.0612 11.8333C12.0612 12.2235 12.3794 12.5417 12.7695 12.5417C13.1597 12.5417 13.4779 12.2235 13.4779 11.8333C13.4779 11.4432 13.1597 11.125 12.7695 11.125ZM5.6862 13.25C5.29606 13.25 4.97786 13.5682 4.97786 13.9583C4.97786 14.3485 5.29606 14.6667 5.6862 14.6667C6.07633 14.6667 6.39453 14.3485 6.39453 13.9583C6.39453 13.5682 6.07633 13.25 5.6862 13.25ZM8.51953 13.25C8.12939 13.25 7.8112 13.5682 7.8112 13.9583C7.8112 14.3485 8.12939 14.6667 8.51953 14.6667C8.90967 14.6667 9.22786 14.3485 9.22786 13.9583C9.22786 13.5682 8.90967 13.25 8.51953 13.25ZM11.3529 13.25C10.9627 13.25 10.6445 13.5682 10.6445 13.9583C10.6445 14.3485 10.9627 14.6667 11.3529 14.6667C11.743 14.6667 12.0612 14.3485 12.0612 13.9583C12.0612 13.5682 11.743 13.25 11.3529 13.25Z" fill="white"/>
</svg>
