<svg width="21" height="18" viewBox="0 0 21 18" fill="none" xmlns="http://www.w3.org/2000/svg">
<path d="M2.71169 0C1.57046 0 0.634766 0.935697 0.634766 2.07692V9C0.634766 10.1412 1.57046 11.0769 2.71169 11.0769H4.77779V13.8462L8.47731 11.0769H12.404C13.5452 11.0769 14.4809 10.1412 14.4809 9V2.07692C14.4809 0.935697 13.5452 0 12.404 0H2.71169ZM2.71169 1.38462H12.404C12.7934 1.38462 13.0963 1.6875 13.0963 2.07692V9C13.0963 9.38942 12.7934 9.69231 12.404 9.69231H8.01217L6.16241 11.0769V9.69231H2.71169C2.32227 9.69231 2.01938 9.38942 2.01938 9V2.07692C2.01938 1.6875 2.32227 1.38462 2.71169 1.38462ZM3.404 2.76923V4.15385H11.7117V2.76923H3.404ZM15.8655 4.15385V5.53846H17.9425C18.3319 5.53846 18.6348 5.84135 18.6348 6.23077V13.1538C18.6348 13.5433 18.3319 13.8462 17.9425 13.8462H14.4863V15.2308L12.642 13.8462H8.25015C7.97431 13.8462 7.73633 13.6785 7.62275 13.4405L6.50856 14.2788C6.88176 14.8522 7.51998 15.2308 8.25015 15.2308H12.1768L15.8709 18V15.2308H17.9425C19.0837 15.2308 20.0194 14.2951 20.0194 13.1538V6.23077C20.0194 5.08954 19.0837 4.15385 17.9425 4.15385H15.8655ZM3.404 5.53846V6.92308H8.94246V5.53846H3.404ZM15.8655 6.92308V8.30769H17.2501V6.92308H15.8655ZM15.8655 9.69231V11.0769H17.2501V9.69231H15.8655Z" fill="white"/>
</svg>
