<svg width="18" height="18" viewBox="0 0 18 18" fill="none" xmlns="http://www.w3.org/2000/svg">
<path d="M2.75 0C1.24011 0 0 1.24011 0 2.75V15.25C0 16.7599 1.24011 18 2.75 18H15.25C16.7599 18 18 16.7599 18 15.25V2.75C18 1.24011 16.7599 0 15.25 0H2.75ZM2.75 1.5H15.25C15.9491 1.5 16.5 2.05089 16.5 2.75V12.9775L13.4941 10.0693L13.4932 10.0684C13.1041 9.6927 12.5934 9.5 12.0869 9.5C11.5806 9.5 11.0699 9.69269 10.6807 10.0693L9.65625 11.0605L6.56641 8.07129C6.17818 7.69487 5.66804 7.5 5.15918 7.5C4.64954 7.5 4.14049 7.69609 3.75293 8.07031L3.75195 8.07129L1.5 10.25V2.75C1.5 2.05089 2.05089 1.5 2.75 1.5ZM12.25 3.5C11.5625 3.5 10.9519 3.78482 10.5645 4.2207C10.177 4.65659 10 5.20833 10 5.75C10 6.29167 10.177 6.84341 10.5645 7.2793C10.9519 7.71518 11.5625 8 12.25 8C12.9375 8 13.5481 7.71518 13.9355 7.2793C14.323 6.84341 14.5 6.29167 14.5 5.75C14.5 5.20833 14.323 4.65659 13.9355 4.2207C13.5481 3.78482 12.9375 3.5 12.25 3.5ZM12.25 5C12.5625 5 12.7019 5.09018 12.8145 5.2168C12.927 5.34341 13 5.54167 13 5.75C13 5.95833 12.927 6.15659 12.8145 6.2832C12.7019 6.40982 12.5625 6.5 12.25 6.5C11.9375 6.5 11.7981 6.40982 11.6855 6.2832C11.573 6.15659 11.5 5.95833 11.5 5.75C11.5 5.54167 11.573 5.34341 11.6855 5.2168C11.7981 5.09018 11.9375 5 12.25 5ZM5.15918 9C5.28932 9 5.41766 9.04683 5.52246 9.14844L5.52344 9.14941L8.57715 12.1035L4.03223 16.5H2.75C2.05089 16.5 1.5 15.9491 1.5 15.25V12.3369L4.79492 9.14941C4.90138 9.04662 5.02982 9 5.15918 9ZM12.0869 11C12.2194 11 12.3462 11.0461 12.4512 11.1475L16.5 15.0645V15.25C16.5 15.9491 15.9491 16.5 15.25 16.5H6.19043L11.7236 11.1475C11.8274 11.0471 11.9552 11 12.0869 11Z" fill="#C2C7D6"/>
</svg>
