<svg width="19" height="20" viewBox="0 0 19 20" fill="none" xmlns="http://www.w3.org/2000/svg">
<path d="M5.70559 0.502992C5.45504 0.517439 5.21659 0.584008 5.01875 0.686611C4.49118 0.960221 4.05391 1.38627 4.04435 2.07242C4.04414 2.08224 4.04414 2.09206 4.04435 2.10187C4.05492 2.46125 4.13095 3.07634 4.16215 3.78996C4.19267 4.48827 4.15803 5.24852 4.04955 5.6201C3.06427 6.45916 2.35985 7.5655 1.8669 8.62731C1.22545 10.009 0.929337 11.2726 0.90809 12.0399C0.875758 13.2004 0.692818 15.6871 2.87854 17.8525C4.17884 19.1408 6.31751 19.4618 8.29619 19.4973C9.28554 19.515 10.2409 19.4453 11.0453 19.3318C11.8497 19.2183 12.4773 19.0811 12.9361 18.8719C15.5524 17.6785 17.081 16.1474 17.834 14.5612C18.5571 13.038 18.5468 11.5043 18.2151 10.2548C18.2109 10.1794 18.194 10.1053 18.1649 10.0356C18.0186 9.46197 17.7595 6.92114 17.7595 6.29308C17.7595 6.00902 17.8198 4.96048 17.8505 3.97878C17.8659 3.48792 17.8739 3.00489 17.8618 2.60076C17.8557 2.3987 17.8447 2.21729 17.8236 2.05163C17.8026 1.88598 17.8105 1.75982 17.6643 1.51637C17.4289 1.12439 17.0535 0.81373 16.4959 0.698737C15.9382 0.583745 15.2115 0.842754 14.7723 1.48172C14.614 1.70213 14.0511 2.38372 13.5536 2.9706C13.1706 3.42243 12.9709 3.65227 12.8252 3.82114C12.4351 3.76738 11.6729 3.71371 10.633 3.84366C10.1882 3.542 8.08556 2.09865 6.91991 0.942986C6.91991 0.942698 6.91991 0.942409 6.91991 0.94212C6.64305 0.667756 6.29951 0.536022 5.95937 0.506456C5.87433 0.499065 5.78911 0.498176 5.70559 0.502992ZM5.81906 1.79439C5.86882 1.79344 5.9146 1.82039 5.98275 1.88794V1.88707C6.49462 2.39455 7.13462 2.92481 7.75659 3.40713C7.71615 3.41458 7.6758 3.41794 7.63533 3.42705C7.11478 3.54435 6.73221 3.78698 6.38204 4.04027C6.13087 4.22196 5.86965 4.4204 5.50292 4.65176C5.50921 4.3425 5.50392 4.03233 5.49079 3.73193C5.45769 2.97473 5.38368 2.27353 5.37646 2.08974C5.37619 2.19699 5.46343 1.95497 5.63111 1.86802C5.71555 1.82422 5.76929 1.79535 5.81906 1.79439ZM16.1572 1.98581C16.179 1.98934 16.201 1.99684 16.2274 2.00227C16.3218 2.02174 16.4574 2.14357 16.4941 2.17982C16.4984 2.19516 16.5021 2.20042 16.5045 2.21966C16.5167 2.3153 16.5261 2.46408 16.5314 2.6406C16.542 2.99366 16.5351 3.45965 16.5201 3.9372C16.4902 4.8923 16.4292 5.85919 16.4292 6.29308C16.4292 6.92278 16.5188 8.21282 16.6717 9.28297C16.5171 9.24532 16.3614 9.20684 16.191 9.1825C15.7371 9.11766 15.2226 9.10717 14.7082 9.27864C14.1938 9.4501 13.6912 9.83839 13.3951 10.4306C13.0607 11.0994 12.5315 11.3123 11.9963 11.4015C11.4612 11.4907 11.0167 11.4059 11.0167 11.4059C10.9305 11.3872 10.8414 11.3859 10.7547 11.402C10.668 11.4181 10.5854 11.4513 10.5116 11.4996C10.4378 11.548 10.3744 11.6105 10.325 11.6836C10.2756 11.7566 10.2412 11.8388 10.2239 11.9253C10.2066 12.0118 10.2066 12.1008 10.224 12.1873C10.2414 12.2738 10.2758 12.3559 10.3252 12.429C10.3747 12.502 10.4381 12.5645 10.5119 12.6128C10.5857 12.6611 10.6684 12.6942 10.7551 12.7103C10.7551 12.7103 11.4193 12.8471 12.2146 12.7146C13.0098 12.582 14.0326 12.1298 14.5852 11.0248C14.7325 10.73 14.8952 10.6194 15.1291 10.5415C15.363 10.4635 15.68 10.453 16.0022 10.499C16.419 10.5586 16.7464 10.6767 16.974 10.7692C17.1941 11.7262 17.1734 12.8514 16.6327 13.9904C16.035 15.2495 14.7897 16.5635 12.3835 17.6611C12.1901 17.7492 11.5925 17.9118 10.8591 18.0153C10.1257 18.1188 9.2309 18.1832 8.31958 18.1669C6.49693 18.1342 4.63114 17.7146 3.81569 16.9067C1.99875 15.1066 2.20339 13.3352 2.23847 12.0762C2.24488 11.8448 2.34344 11.3147 2.52516 10.6835L3.4216 11.2811C3.49425 11.3312 3.57613 11.3664 3.66249 11.3845C3.74884 11.4026 3.83794 11.4034 3.9246 11.3868C4.01126 11.3702 4.09375 11.3365 4.16726 11.2877C4.24077 11.2388 4.30383 11.1759 4.35278 11.1025C4.40173 11.0291 4.43558 10.9466 4.45236 10.86C4.46915 10.7734 4.46853 10.6843 4.45055 10.5979C4.43256 10.5115 4.39757 10.4295 4.34762 10.3568C4.29766 10.2841 4.23373 10.222 4.15955 10.1742L2.98507 9.39123C3.01478 9.32302 3.04179 9.25495 3.07342 9.18683C3.64162 7.96293 4.51516 6.74224 5.66315 6.1034C6.39462 5.69625 6.84288 5.34826 7.16156 5.11774C7.48024 4.88722 7.62603 4.79258 7.92809 4.72452C8.50367 4.59492 9.33297 4.78637 10.1601 5.1238C10.2387 5.16334 10.3243 5.18691 10.412 5.19316C10.4997 5.1994 10.5878 5.18819 10.6711 5.16018C11.8328 4.9917 12.8362 5.14933 12.9413 5.16711C13.476 5.3343 14.2166 5.7044 14.4293 5.89813C14.4938 5.95765 14.5694 6.00382 14.6518 6.03399C14.7342 6.06416 14.8217 6.07773 14.9094 6.07392C14.9971 6.0701 15.0831 6.04898 15.1626 6.01177C15.2421 5.97456 15.3134 5.92199 15.3725 5.85709C15.4315 5.7922 15.4772 5.71625 15.5068 5.63364C15.5364 5.55103 15.5493 5.46338 15.5449 5.37573C15.5405 5.28809 15.5188 5.20219 15.481 5.12298C15.4432 5.04377 15.3902 4.97281 15.3249 4.9142C15.0148 4.63179 14.6268 4.41112 14.2257 4.23082C14.3747 4.05666 14.3876 4.04338 14.5679 3.83067C15.0745 3.233 15.612 2.5953 15.8619 2.24478C15.8642 2.24163 15.8665 2.23845 15.8688 2.23525C16.0296 2.0014 16.0918 1.9752 16.1572 1.98581ZM7.33825 8.28865C7.16183 8.28865 6.99264 8.35873 6.86789 8.48348C6.74314 8.60823 6.67306 8.77742 6.67306 8.95384C6.67306 9.13026 6.74314 9.29945 6.86789 9.4242C6.99264 9.54894 7.16183 9.61903 7.33825 9.61903C7.51467 9.61903 7.68386 9.54894 7.80861 9.4242C7.93336 9.29945 8.00344 9.13026 8.00344 8.95384C8.00344 8.77742 7.93336 8.60823 7.80861 8.48348C7.68386 8.35873 7.51467 8.28865 7.33825 8.28865ZM10.8859 8.28865C10.7095 8.28865 10.5403 8.35873 10.4156 8.48348C10.2908 8.60823 10.2207 8.77742 10.2207 8.95384C10.2207 9.13026 10.2908 9.29945 10.4156 9.4242C10.5403 9.54894 10.7095 9.61903 10.8859 9.61903C11.0623 9.61903 11.2315 9.54894 11.3563 9.4242C11.481 9.29945 11.5511 9.13026 11.5511 8.95384C11.5511 8.77742 11.481 8.60823 11.3563 8.48348C11.2315 8.35873 11.0623 8.28865 10.8859 8.28865ZM6.16984 10.5111C5.847 10.5267 5.45507 10.7017 5.35308 11.2759C5.25197 11.8502 5.86469 12.7111 6.37511 12.7111C6.37511 12.7111 6.54051 12.7584 6.94849 12.6626C7.35692 12.5668 8.11018 12.0418 8.41572 11.2759C8.72215 10.511 6.68824 10.4859 6.16984 10.5111ZM4.65238 13.6041C4.52024 13.6079 4.39223 13.651 4.28469 13.7279C4.17714 13.8047 4.09494 13.9119 4.04857 14.0357C4.00219 14.1595 3.99375 14.2943 4.02431 14.4229C4.05488 14.5515 4.12307 14.6681 4.22018 14.7578C4.6536 15.1688 5.33198 15.6674 6.22267 15.9522C7.11337 16.237 8.22964 16.2844 9.38319 15.7694C9.46564 15.7356 9.54047 15.6856 9.60323 15.6224C9.666 15.5591 9.71541 15.4839 9.74855 15.4012C9.78168 15.3185 9.79786 15.23 9.79613 15.1409C9.7944 15.0518 9.77478 14.964 9.73845 14.8826C9.70212 14.8012 9.64982 14.728 9.58464 14.6672C9.51947 14.6065 9.44275 14.5594 9.35904 14.5289C9.27534 14.4983 9.18635 14.4849 9.09735 14.4894C9.00836 14.4939 8.92118 14.5163 8.84099 14.5551C7.99587 14.9324 7.26837 14.8898 6.62802 14.685C5.98768 14.4803 5.44773 14.0897 5.13481 13.7929C5.07111 13.7308 4.9956 13.682 4.91273 13.6496C4.82986 13.6172 4.74133 13.6017 4.65238 13.6041Z" fill="white"/>
</svg>
