<svg width="17" height="18" viewBox="0 0 17 18" fill="none" xmlns="http://www.w3.org/2000/svg">
<path d="M15.9414 0.570068L12.1654 4.34606L8.25236 3.03664L4.36472 7.2491L0.477075 5.76713L0.0152261 6.98012L4.73014 8.77168L8.63808 4.53892L12.5207 5.82803L16.8651 1.48361L15.9414 0.570068ZM7.79559 9.63447V17.4301H9.09486V9.63447H7.79559ZM15.5912 9.63447V17.4301H16.8904V9.63447H15.5912ZM5.19706 10.9337V17.4301H6.49633V10.9337H5.19706ZM10.3941 10.9337V17.4301H11.6934V10.9337H10.3941ZM0 12.233V17.4301H1.29927V12.233H0ZM2.59853 12.233V17.4301H3.8978V12.233H2.59853ZM12.9927 12.233V17.4301H14.2919V12.233H12.9927Z" fill="white"/>
</svg>
