<svg width="15" height="16" viewBox="0 0 15 16" fill="none" xmlns="http://www.w3.org/2000/svg">
<path d="M1.02445 0.5C0.867506 0.500016 0.716995 0.562368 0.60602 0.673344C0.495044 0.784319 0.432692 0.93483 0.432676 1.09177V14.8998C0.431567 14.9782 0.446055 15.0561 0.475296 15.1288C0.504538 15.2016 0.547951 15.2678 0.603012 15.3237C0.658073 15.3795 0.723685 15.4239 0.796033 15.4541C0.868382 15.4844 0.946024 15.5 1.02445 15.5C1.10287 15.5 1.18052 15.4844 1.25286 15.4541C1.32521 15.4239 1.39082 15.3795 1.44589 15.3237C1.50095 15.2678 1.54436 15.2016 1.5736 15.1288C1.60284 15.0561 1.61733 14.9782 1.61622 14.8998V11.1519H14.0434C14.1533 11.1518 14.261 11.1212 14.3545 11.0634C14.4479 11.0056 14.5235 10.9229 14.5726 10.8246C14.6217 10.7263 14.6425 10.6162 14.6326 10.5068C14.6227 10.3973 14.5825 10.2928 14.5166 10.2049L11.2325 5.82595L14.5166 1.44699C14.5825 1.35909 14.6227 1.25456 14.6326 1.14511C14.6425 1.03567 14.6217 0.925633 14.5726 0.827329C14.5235 0.729024 14.4479 0.646334 14.3545 0.588522C14.261 0.530709 14.1533 0.500058 14.0434 0.5H1.02445ZM1.61622 1.68355H12.8599L10.0197 5.47074C9.94281 5.5732 9.90125 5.69785 9.90125 5.82595C9.90125 5.95406 9.94281 6.07871 10.0197 6.18117L12.8599 9.96836H1.61622V1.68355Z" fill="white" stroke="white" stroke-width="0.3"/>
</svg>
